<?xml version="1.0" encoding="UTF-8" standalone="no"?>
<!DOCTYPE svg PUBLIC "-//W3C//DTD SVG 1.1//EN"
 "http://www.w3.org/Graphics/SVG/1.1/DTD/svg11.dtd">
<!-- Generated by graphviz version 2.36.0 (20140111.2315)
 -->
<!-- Title: G Pages: 1 -->
<svg width="1647pt" height="1822pt"
 viewBox="0.00 0.00 1647.00 1822.00" xmlns="http://www.w3.org/2000/svg" xmlns:xlink="http://www.w3.org/1999/xlink">
<g id="graph0" class="graph" transform="scale(1 1) rotate(0) translate(4 1818)">
<title>G</title>
<polygon fill="white" stroke="none" points="-4,4 -4,-1818 1643,-1818 1643,4 -4,4"/>
<!-- n1 -->
<g id="node1" class="node"><title>n1</title>
<g id="a_node1"><a xlink:title="[./models/ZF_model_utilities_3d_reshape.lua]:99_">
<ellipse fill="none" stroke="black" cx="404" cy="-471" rx="188.197" ry="101.233"/>
<text text-anchor="middle" x="404" y="-527.3" font-family="Times,serif" font-size="14.00">Node1</text>
<text text-anchor="start" x="278.5" y="-512.3" font-family="Times,serif" font-size="14.00">input = {torch.CudaTensor[384x60x106]}</text>
<text text-anchor="start" x="278.5" y="-497.3" font-family="Times,serif" font-size="14.00">module = nn.Sequential {</text>
<text text-anchor="start" x="278.5" y="-482.3" font-family="Times,serif" font-size="14.00"> &#160;[input &#45;&gt; (1) &#45;&gt; (2) &#45;&gt; (3) &#45;&gt; output]</text>
<text text-anchor="start" x="278.5" y="-467.3" font-family="Times,serif" font-size="14.00"> &#160;(1): nn.SpatialConvolution(384 &#45;&gt; 256, 3x3)</text>
<text text-anchor="start" x="278.5" y="-452.3" font-family="Times,serif" font-size="14.00"> &#160;(2): nn.ReLU</text>
<text text-anchor="start" x="278.5" y="-437.3" font-family="Times,serif" font-size="14.00"> &#160;(3): nn.SpatialConvolution(256 &#45;&gt; 18, 1x1)</text>
<text text-anchor="start" x="278.5" y="-422.3" font-family="Times,serif" font-size="14.00">}</text>
<text text-anchor="middle" x="404" y="-407.3" font-family="Times,serif" font-size="14.00">reverseMap = {}</text>
</a>
</g>
</g>
<!-- n2 -->
<g id="node2" class="node"><title>n2</title>
<g id="a_node2"><a xlink:title="[[C]]:&#45;1_">
<ellipse fill="none" stroke="black" cx="659" cy="-48" rx="659.035" ry="48.1667"/>
<text text-anchor="middle" x="659" y="-66.8" font-family="Times,serif" font-size="14.00">Node2</text>
<text text-anchor="start" x="201" y="-51.8" font-family="Times,serif" font-size="14.00">input = {torch.CudaTensor[18x58x104],torch.CudaTensor[18x58x104],torch.CudaTensor[18x56x102],torch.CudaTensor[18x54x100],torch.CudaTensor[256x60x106]}</text>
<text text-anchor="start" x="201" y="-36.8" font-family="Times,serif" font-size="14.00">mapindex = {Node1,Node3,Node4,Node5,Node6}</text>
<text text-anchor="middle" x="659" y="-21.8" font-family="Times,serif" font-size="14.00">reverseMap = {}</text>
</a>
</g>
</g>
<!-- n1&#45;&gt;n2 -->
<g id="edge1" class="edge"><title>n1&#45;&gt;n2</title>
<path fill="none" stroke="black" d="M380.507,-370.322C369.344,-297.265 367.739,-199.469 418,-132 427.379,-119.41 438.788,-108.715 451.482,-99.6319"/>
<polygon fill="black" stroke="black" points="453.664,-102.382 460.002,-93.8922 449.753,-96.5768 453.664,-102.382"/>
</g>
<!-- n3 -->
<g id="node3" class="node"><title>n3</title>
<g id="a_node3"><a xlink:title="[./models/ZF_model_utilities_3d_reshape.lua]:99_">
<ellipse fill="none" stroke="black" cx="659" cy="-233" rx="188.197" ry="101.233"/>
<text text-anchor="middle" x="659" y="-289.3" font-family="Times,serif" font-size="14.00">Node3</text>
<text text-anchor="start" x="533.5" y="-274.3" font-family="Times,serif" font-size="14.00">input = {torch.CudaTensor[256x60x106]}</text>
<text text-anchor="start" x="533.5" y="-259.3" font-family="Times,serif" font-size="14.00">module = nn.Sequential {</text>
<text text-anchor="start" x="533.5" y="-244.3" font-family="Times,serif" font-size="14.00"> &#160;[input &#45;&gt; (1) &#45;&gt; (2) &#45;&gt; (3) &#45;&gt; output]</text>
<text text-anchor="start" x="533.5" y="-229.3" font-family="Times,serif" font-size="14.00"> &#160;(1): nn.SpatialConvolution(256 &#45;&gt; 256, 3x3)</text>
<text text-anchor="start" x="533.5" y="-214.3" font-family="Times,serif" font-size="14.00"> &#160;(2): nn.ReLU</text>
<text text-anchor="start" x="533.5" y="-199.3" font-family="Times,serif" font-size="14.00"> &#160;(3): nn.SpatialConvolution(256 &#45;&gt; 18, 1x1)</text>
<text text-anchor="start" x="533.5" y="-184.3" font-family="Times,serif" font-size="14.00">}</text>
<text text-anchor="middle" x="659" y="-169.3" font-family="Times,serif" font-size="14.00">reverseMap = {}</text>
</a>
</g>
</g>
<!-- n3&#45;&gt;n2 -->
<g id="edge2" class="edge"><title>n3&#45;&gt;n2</title>
<path fill="none" stroke="black" d="M659,-131.666C659,-123.003 659,-114.446 659,-106.311"/>
<polygon fill="black" stroke="black" points="662.5,-106.255 659,-96.2553 655.5,-106.255 662.5,-106.255"/>
</g>
<!-- n4 -->
<g id="node4" class="node"><title>n4</title>
<g id="a_node4"><a xlink:title="[./models/ZF_model_utilities_3d_reshape.lua]:99_">
<ellipse fill="none" stroke="black" cx="1055" cy="-233" rx="188.197" ry="101.233"/>
<text text-anchor="middle" x="1055" y="-289.3" font-family="Times,serif" font-size="14.00">Node4</text>
<text text-anchor="start" x="929.5" y="-274.3" font-family="Times,serif" font-size="14.00">input = {torch.CudaTensor[256x60x106]}</text>
<text text-anchor="start" x="929.5" y="-259.3" font-family="Times,serif" font-size="14.00">module = nn.Sequential {</text>
<text text-anchor="start" x="929.5" y="-244.3" font-family="Times,serif" font-size="14.00"> &#160;[input &#45;&gt; (1) &#45;&gt; (2) &#45;&gt; (3) &#45;&gt; output]</text>
<text text-anchor="start" x="929.5" y="-229.3" font-family="Times,serif" font-size="14.00"> &#160;(1): nn.SpatialConvolution(256 &#45;&gt; 256, 5x5)</text>
<text text-anchor="start" x="929.5" y="-214.3" font-family="Times,serif" font-size="14.00"> &#160;(2): nn.ReLU</text>
<text text-anchor="start" x="929.5" y="-199.3" font-family="Times,serif" font-size="14.00"> &#160;(3): nn.SpatialConvolution(256 &#45;&gt; 18, 1x1)</text>
<text text-anchor="start" x="929.5" y="-184.3" font-family="Times,serif" font-size="14.00">}</text>
<text text-anchor="middle" x="1055" y="-169.3" font-family="Times,serif" font-size="14.00">reverseMap = {}</text>
</a>
</g>
</g>
<!-- n4&#45;&gt;n2 -->
<g id="edge3" class="edge"><title>n4&#45;&gt;n2</title>
<path fill="none" stroke="black" d="M919.639,-162.462C898.452,-152.018 876.715,-141.556 856,-132 832.318,-121.076 806.793,-109.895 782.222,-99.4212"/>
<polygon fill="black" stroke="black" points="783.43,-96.1316 772.857,-95.4438 780.693,-102.575 783.43,-96.1316"/>
</g>
<!-- n5 -->
<g id="node5" class="node"><title>n5</title>
<g id="a_node5"><a xlink:title="[./models/ZF_model_utilities_3d_reshape.lua]:99_">
<ellipse fill="none" stroke="black" cx="1451" cy="-233" rx="188.197" ry="101.233"/>
<text text-anchor="middle" x="1451" y="-289.3" font-family="Times,serif" font-size="14.00">Node5</text>
<text text-anchor="start" x="1325.5" y="-274.3" font-family="Times,serif" font-size="14.00">input = {torch.CudaTensor[256x60x106]}</text>
<text text-anchor="start" x="1325.5" y="-259.3" font-family="Times,serif" font-size="14.00">module = nn.Sequential {</text>
<text text-anchor="start" x="1325.5" y="-244.3" font-family="Times,serif" font-size="14.00"> &#160;[input &#45;&gt; (1) &#45;&gt; (2) &#45;&gt; (3) &#45;&gt; output]</text>
<text text-anchor="start" x="1325.5" y="-229.3" font-family="Times,serif" font-size="14.00"> &#160;(1): nn.SpatialConvolution(256 &#45;&gt; 256, 7x7)</text>
<text text-anchor="start" x="1325.5" y="-214.3" font-family="Times,serif" font-size="14.00"> &#160;(2): nn.ReLU</text>
<text text-anchor="start" x="1325.5" y="-199.3" font-family="Times,serif" font-size="14.00"> &#160;(3): nn.SpatialConvolution(256 &#45;&gt; 18, 1x1)</text>
<text text-anchor="start" x="1325.5" y="-184.3" font-family="Times,serif" font-size="14.00">}</text>
<text text-anchor="middle" x="1451" y="-169.3" font-family="Times,serif" font-size="14.00">reverseMap = {}</text>
</a>
</g>
</g>
<!-- n5&#45;&gt;n2 -->
<g id="edge4" class="edge"><title>n5&#45;&gt;n2</title>
<path fill="none" stroke="black" d="M1321.6,-159.43C1298.93,-148.916 1275.16,-139.225 1252,-132 1193.13,-113.636 1129.69,-99.3253 1066.97,-88.1764"/>
<polygon fill="black" stroke="black" points="1067.37,-84.6924 1056.91,-86.4141 1066.16,-91.5874 1067.37,-84.6924"/>
</g>
<!-- n6 -->
<g id="node6" class="node"><title>n6</title>
<g id="a_node6"><a xlink:title="[./models/ZF_model_utilities_3d_reshape.lua]:87_">
<ellipse fill="none" stroke="black" cx="835" cy="-471" rx="224.229" ry="90.5193"/>
<text text-anchor="middle" x="835" y="-519.8" font-family="Times,serif" font-size="14.00">Node6</text>
<text text-anchor="start" x="684.5" y="-504.8" font-family="Times,serif" font-size="14.00">input = {torch.CudaTensor[384x60x106]}</text>
<text text-anchor="start" x="684.5" y="-489.8" font-family="Times,serif" font-size="14.00">module = nn.Sequential {</text>
<text text-anchor="start" x="684.5" y="-474.8" font-family="Times,serif" font-size="14.00"> &#160;[input &#45;&gt; (1) &#45;&gt; (2) &#45;&gt; output]</text>
<text text-anchor="start" x="684.5" y="-459.8" font-family="Times,serif" font-size="14.00"> &#160;(1): nn.SpatialConvolution(384 &#45;&gt; 256, 3x3, 1,1, 1,1)</text>
<text text-anchor="start" x="684.5" y="-444.8" font-family="Times,serif" font-size="14.00"> &#160;(2): nn.ReLU</text>
<text text-anchor="start" x="684.5" y="-429.8" font-family="Times,serif" font-size="14.00">}</text>
<text text-anchor="middle" x="835" y="-414.8" font-family="Times,serif" font-size="14.00">reverseMap = {}</text>
</a>
</g>
</g>
<!-- n6&#45;&gt;n2 -->
<g id="edge5" class="edge"><title>n6&#45;&gt;n2</title>
<path fill="none" stroke="black" d="M687.149,-402.806C658.846,-391.09 629.233,-379.6 601,-370 540.174,-349.317 500.368,-384.772 461,-334 405.987,-263.052 411.281,-206.753 461,-132 469.05,-119.896 479.243,-109.554 490.739,-100.718"/>
<polygon fill="black" stroke="black" points="492.83,-103.525 498.895,-94.8374 488.737,-97.8463 492.83,-103.525"/>
</g>
<!-- n6&#45;&gt;n3 -->
<g id="edge7" class="edge"><title>n6&#45;&gt;n3</title>
<path fill="none" stroke="black" d="M770.962,-384.131C759.244,-368.419 746.913,-351.884 734.89,-335.761"/>
<polygon fill="black" stroke="black" points="737.419,-333.298 728.635,-327.374 731.807,-337.483 737.419,-333.298"/>
</g>
<!-- n6&#45;&gt;n4 -->
<g id="edge8" class="edge"><title>n6&#45;&gt;n4</title>
<path fill="none" stroke="black" d="M913.183,-386.131C929.609,-368.51 947.071,-349.778 963.922,-331.702"/>
<polygon fill="black" stroke="black" points="966.843,-333.701 971.102,-324 961.723,-328.928 966.843,-333.701"/>
</g>
<!-- n6&#45;&gt;n5 -->
<g id="edge9" class="edge"><title>n6&#45;&gt;n5</title>
<path fill="none" stroke="black" d="M1015.97,-417.498C1090.05,-394.33 1176.04,-365.266 1252,-334 1270.44,-326.412 1289.52,-317.823 1308.24,-308.946"/>
<polygon fill="black" stroke="black" points="1309.88,-312.039 1317.4,-304.568 1306.86,-305.724 1309.88,-312.039"/>
</g>
<!-- n7 -->
<g id="node7" class="node"><title>n7</title>
<g id="a_node7"><a xlink:title="[./models/ZF_model_utilities_3d_reshape.lua]:87_">
<ellipse fill="none" stroke="black" cx="619" cy="-699" rx="224.229" ry="90.5193"/>
<text text-anchor="middle" x="619" y="-747.8" font-family="Times,serif" font-size="14.00">Node7</text>
<text text-anchor="start" x="468.5" y="-732.8" font-family="Times,serif" font-size="14.00">input = {torch.CudaTensor[384x60x106]}</text>
<text text-anchor="start" x="468.5" y="-717.8" font-family="Times,serif" font-size="14.00">module = nn.Sequential {</text>
<text text-anchor="start" x="468.5" y="-702.8" font-family="Times,serif" font-size="14.00"> &#160;[input &#45;&gt; (1) &#45;&gt; (2) &#45;&gt; output]</text>
<text text-anchor="start" x="468.5" y="-687.8" font-family="Times,serif" font-size="14.00"> &#160;(1): nn.SpatialConvolution(384 &#45;&gt; 384, 3x3, 1,1, 1,1)</text>
<text text-anchor="start" x="468.5" y="-672.8" font-family="Times,serif" font-size="14.00"> &#160;(2): nn.ReLU</text>
<text text-anchor="start" x="468.5" y="-657.8" font-family="Times,serif" font-size="14.00">}</text>
<text text-anchor="middle" x="619" y="-642.8" font-family="Times,serif" font-size="14.00">reverseMap = {}</text>
</a>
</g>
</g>
<!-- n7&#45;&gt;n1 -->
<g id="edge6" class="edge"><title>n7&#45;&gt;n1</title>
<path fill="none" stroke="black" d="M539.247,-614.167C525.178,-599.377 510.427,-583.872 496.053,-568.762"/>
<polygon fill="black" stroke="black" points="498.459,-566.214 489.031,-561.381 493.388,-571.039 498.459,-566.214"/>
</g>
<!-- n7&#45;&gt;n6 -->
<g id="edge10" class="edge"><title>n7&#45;&gt;n6</title>
<path fill="none" stroke="black" d="M699.123,-614.167C714.949,-597.609 731.632,-580.154 747.682,-563.361"/>
<polygon fill="black" stroke="black" points="750.627,-565.345 755.006,-555.697 745.566,-560.508 750.627,-565.345"/>
</g>
<!-- n8 -->
<g id="node8" class="node"><title>n8</title>
<g id="a_node8"><a xlink:title="[./models/ZF_model_utilities_3d_reshape.lua]:87_">
<ellipse fill="none" stroke="black" cx="619" cy="-917" rx="224.229" ry="90.5193"/>
<text text-anchor="middle" x="619" y="-965.8" font-family="Times,serif" font-size="14.00">Node8</text>
<text text-anchor="start" x="468.5" y="-950.8" font-family="Times,serif" font-size="14.00">input = {torch.CudaTensor[256x60x106]}</text>
<text text-anchor="start" x="468.5" y="-935.8" font-family="Times,serif" font-size="14.00">module = nn.Sequential {</text>
<text text-anchor="start" x="468.5" y="-920.8" font-family="Times,serif" font-size="14.00"> &#160;[input &#45;&gt; (1) &#45;&gt; (2) &#45;&gt; output]</text>
<text text-anchor="start" x="468.5" y="-905.8" font-family="Times,serif" font-size="14.00"> &#160;(1): nn.SpatialConvolution(256 &#45;&gt; 384, 3x3, 1,1, 1,1)</text>
<text text-anchor="start" x="468.5" y="-890.8" font-family="Times,serif" font-size="14.00"> &#160;(2): nn.ReLU</text>
<text text-anchor="start" x="468.5" y="-875.8" font-family="Times,serif" font-size="14.00">}</text>
<text text-anchor="middle" x="619" y="-860.8" font-family="Times,serif" font-size="14.00">reverseMap = {}</text>
</a>
</g>
</g>
<!-- n8&#45;&gt;n7 -->
<g id="edge11" class="edge"><title>n8&#45;&gt;n7</title>
<path fill="none" stroke="black" d="M619,-826.273C619,-817.609 619,-808.783 619,-800.027"/>
<polygon fill="black" stroke="black" points="622.5,-799.795 619,-789.795 615.5,-799.795 622.5,-799.795"/>
</g>
<!-- n9 -->
<g id="node9" class="node"><title>n9</title>
<g id="a_node9"><a xlink:title="[./models/ZF_model_utilities_3d_reshape.lua]:87_">
<ellipse fill="none" stroke="black" cx="619" cy="-1156" rx="219.305" ry="111.946"/>
<text text-anchor="middle" x="619" y="-1219.8" font-family="Times,serif" font-size="14.00">Node9</text>
<text text-anchor="start" x="472" y="-1204.8" font-family="Times,serif" font-size="14.00">input = {torch.CudaTensor[96x120x213]}</text>
<text text-anchor="start" x="472" y="-1189.8" font-family="Times,serif" font-size="14.00">module = nn.Sequential {</text>
<text text-anchor="start" x="472" y="-1174.8" font-family="Times,serif" font-size="14.00"> &#160;[input &#45;&gt; (1) &#45;&gt; (2) &#45;&gt; (3) &#45;&gt; (4) &#45;&gt; output]</text>
<text text-anchor="start" x="472" y="-1159.8" font-family="Times,serif" font-size="14.00"> &#160;(1): nn.SpatialConvolution(96 &#45;&gt; 256, 5x5, 1,1, 2,2)</text>
<text text-anchor="start" x="472" y="-1144.8" font-family="Times,serif" font-size="14.00"> &#160;(2): nn.ReLU</text>
<text text-anchor="start" x="472" y="-1129.8" font-family="Times,serif" font-size="14.00"> &#160;(3): nn.SpatialCrossMapLRN</text>
<text text-anchor="start" x="472" y="-1114.8" font-family="Times,serif" font-size="14.00"> &#160;(4): nn.SpatialMaxPooling(3x3, 2,2)</text>
<text text-anchor="start" x="472" y="-1099.8" font-family="Times,serif" font-size="14.00">}</text>
<text text-anchor="middle" x="619" y="-1084.8" font-family="Times,serif" font-size="14.00">reverseMap = {}</text>
</a>
</g>
</g>
<!-- n9&#45;&gt;n8 -->
<g id="edge12" class="edge"><title>n9&#45;&gt;n8</title>
<path fill="none" stroke="black" d="M619,-1044.13C619,-1035.39 619,-1026.59 619,-1017.92"/>
<polygon fill="black" stroke="black" points="622.5,-1017.82 619,-1007.82 615.5,-1017.82 622.5,-1017.82"/>
</g>
<!-- n10 -->
<g id="node10" class="node"><title>n10</title>
<g id="a_node10"><a xlink:title="[./models/ZF_model_utilities_3d_reshape.lua]:67_">
<ellipse fill="none" stroke="black" cx="619" cy="-1437" rx="251.595" ry="132.872"/>
<text text-anchor="middle" x="619" y="-1515.8" font-family="Times,serif" font-size="14.00">Node10</text>
<text text-anchor="start" x="449" y="-1500.8" font-family="Times,serif" font-size="14.00">input = {torch.CudaTensor[3x3x480x853]}</text>
<text text-anchor="start" x="449" y="-1485.8" font-family="Times,serif" font-size="14.00">module = nn.Sequential {</text>
<text text-anchor="start" x="449" y="-1470.8" font-family="Times,serif" font-size="14.00"> &#160;[input &#45;&gt; (1) &#45;&gt; (2) &#45;&gt; (3) &#45;&gt; (4) &#45;&gt; (5) &#45;&gt; (6) &#45;&gt; output]</text>
<text text-anchor="start" x="449" y="-1455.8" font-family="Times,serif" font-size="14.00"> &#160;(1): nn.VolumetricConvolution(3 &#45;&gt; 96, 1x7x7, 1,2,2, 0,1,1)</text>
<text text-anchor="start" x="449" y="-1440.8" font-family="Times,serif" font-size="14.00"> &#160;(2): nn.ReLU</text>
<text text-anchor="start" x="449" y="-1425.8" font-family="Times,serif" font-size="14.00"> &#160;(3): nn.VolumetricMaxPooling(1x3x3, 1,2,2, 0,1,1)</text>
<text text-anchor="start" x="449" y="-1410.8" font-family="Times,serif" font-size="14.00"> &#160;(4): nn.VarReshape(288x120x213)</text>
<text text-anchor="start" x="449" y="-1395.8" font-family="Times,serif" font-size="14.00"> &#160;(5): nn.SpatialConvolution(288 &#45;&gt; 96, 1x1)</text>
<text text-anchor="start" x="449" y="-1380.8" font-family="Times,serif" font-size="14.00"> &#160;(6): nn.ReLU</text>
<text text-anchor="start" x="449" y="-1365.8" font-family="Times,serif" font-size="14.00">}</text>
<text text-anchor="middle" x="619" y="-1350.8" font-family="Times,serif" font-size="14.00">reverseMap = {}</text>
</a>
</g>
</g>
<!-- n10&#45;&gt;n9 -->
<g id="edge13" class="edge"><title>n10&#45;&gt;n9</title>
<path fill="none" stroke="black" d="M619,-1303.85C619,-1295.34 619,-1286.79 619,-1278.34"/>
<polygon fill="black" stroke="black" points="622.5,-1278.07 619,-1268.07 615.5,-1278.07 622.5,-1278.07"/>
</g>
<!-- n11 -->
<g id="node11" class="node"><title>n11</title>
<g id="a_node11"><a xlink:title="[./models/ZF_model_utilities_3d_reshape.lua]:46_">
<ellipse fill="none" stroke="black" cx="619" cy="-1654" rx="179.408" ry="48.1667"/>
<text text-anchor="middle" x="619" y="-1672.8" font-family="Times,serif" font-size="14.00">Node11</text>
<text text-anchor="start" x="500" y="-1657.8" font-family="Times,serif" font-size="14.00">input = {torch.CudaTensor[3x3x480x853]}</text>
<text text-anchor="start" x="500" y="-1642.8" font-family="Times,serif" font-size="14.00">module = nn.Identity</text>
<text text-anchor="middle" x="619" y="-1627.8" font-family="Times,serif" font-size="14.00">reverseMap = {}</text>
</a>
</g>
</g>
<!-- n11&#45;&gt;n10 -->
<g id="edge14" class="edge"><title>n11&#45;&gt;n10</title>
<path fill="none" stroke="black" d="M619,-1605.82C619,-1597.91 619,-1589.37 619,-1580.46"/>
<polygon fill="black" stroke="black" points="622.5,-1580.27 619,-1570.27 615.5,-1580.27 622.5,-1580.27"/>
</g>
<!-- n12 -->
<g id="node12" class="node"><title>n12</title>
<g id="a_node12"><a xlink:title="[[C]]:&#45;1_">
<ellipse fill="none" stroke="black" cx="619" cy="-1776" rx="179.408" ry="37.4533"/>
<text text-anchor="middle" x="619" y="-1787.3" font-family="Times,serif" font-size="14.00">Node12</text>
<text text-anchor="start" x="500" y="-1772.3" font-family="Times,serif" font-size="14.00">input = {torch.CudaTensor[3x3x480x853]}</text>
<text text-anchor="middle" x="619" y="-1757.3" font-family="Times,serif" font-size="14.00">reverseMap = {}</text>
</a>
</g>
</g>
<!-- n12&#45;&gt;n11 -->
<g id="edge15" class="edge"><title>n12&#45;&gt;n11</title>
<path fill="none" stroke="black" d="M619,-1738.34C619,-1730.22 619,-1721.42 619,-1712.68"/>
<polygon fill="black" stroke="black" points="622.5,-1712.5 619,-1702.5 615.5,-1712.5 622.5,-1712.5"/>
</g>
</g>
</svg>
